#!OML:ASF E:/inclinewalkrobotboard/Project1/Captureday1/Session1/subject1.ASF
:FULLY-SPECIFIED
:DEGREES
63
root 0 0 0 -1.4531215784156113 -1.4977749616334364 -3.9630075058868663
lowerback 20.162491252253773 2.963110848084993 0.003295317901082062
upperback 2.2751375554353546 3.996710866332756 -0.46171823550615687
thorax -8.835598312656398 1.9263953906322206 -1.155058056085603
lowerneck -8.460416717893649 -5.943048721103207 -1.3393370097105302
upperneck -0.9272214941205537 -8.554176232916046 5.602773207998846
head 1.4030891948303479 -3.9262711360174256 1.4411730746660822
rclavicle -2.2296815898088047E-17 9.262675742228245E-16
rhumerus 35.32612706863675 -6.381224288279547 -30.464567767544082
rradius 147.74399321210979
rwrist -21.720807049191443
rhand -19.86586119387592 -30.68596568108306
rfingers 7.1250199999999655
rthumb 6.497368793456827 -60.52345028739425
lclavicle -1.0120889646546602E-15 1.007613149397969E-15
lhumerus -47.3388786647294 -6.082587691106837 79.59403886205041
lradius 61.9319209927836
lwrist 10.92057668634002
lhand -14.705756970990278 -19.614735310812208
lfingers 7.125019999999861
lthumb 11.37730910608154 10.16967386814713
rfemur -8.591802354672453 7.985631461051185 34.208154336611315
rtibia 34.511551124032394
rfoot -16.762147061953 -8.434226115566384
rtoes 4.947852956706596
lfemur -22.803394211609955 0.2564842590891123 -18.859595838185104
ltibia 40.831306816060376
lfoot -0.577837508815108 -6.003972792704306
ltoes 12.198003784002644
64
root 0 0 0 -1.433228963432133 -1.4249179251902078 -3.9565916585549923
lowerback 20.21768891569142 2.9284480131727584 -0.07940666803950291
upperback 2.2729429583364382 3.946684447631183 -0.41379881346492975
thorax -8.864172818611046 1.9052062608874123 -1.0522650393447381
lowerneck -8.363985014831497 -5.956586473562471 -1.3012856102733856
upperneck -0.5651454163740244 -8.569853742308936 5.544288216019467
head 1.5191964379173681 -3.9328077387600313 1.4124180382279947
rclavicle 3.0035509329251798E-16 5.844717464769367E-16
rhumerus 34.647566702670154 -7.276999537637848 -31.127540602799353
rradius 146.0613993648471
rwrist -20.50171021165942
rhand -19.90543571101717 -30.447954982859976
rfingers 7.125019999999967
rthumb 6.4597271802142995 -60.28763530244267
lclavicle -7.999370196111065E-16 7.635751580819334E-16
lhumerus -47.30651780719887 -6.0726140710169085 79.56653597424122
lradius 61.91999023495707
lwrist 10.950988487499139
lhand -14.742067289190906 -19.546780510518957
lfingers 7.125019999999859
lthumb 11.339142102442146 10.253723608338648
rfemur -13.092170080340928 7.4727273729775305 33.47852943469391
rtibia 38.62594340661376
rfoot -14.380669307411413 -8.675145803327437
rtoes 5.640837764395064
lfemur -20.417905683108895 0.0821216953489401 -19.490028167987987
ltibia 41.40216960747502
lfoot 0.7971979514656198 -7.406868186722357
ltoes 11.914315734178317
65
root 0 0 0 -1.4015911392019338 -1.3112145383766856 -3.9463572624099412
lowerback 20.297257286772027 2.8535977802474117 -0.24406015939808734
upperback 2.2956732794738035 3.840385855234956 -0.30681760526623614
thorax -8.876884503085623 1.859907155844566 -0.8338986386784696
lowerneck -8.135281824609446 -5.976149069883775 -1.221462435502434
upperneck 0.14519765284468278 -8.58365979916883 5.4173961327169895
head 1.7365126205565016 -3.940312203084864 1.353029849514676
rclavicle 8.682515164386568E-16 -4.230872272411166E-17
rhumerus 33.05809720291531 -8.746899964235773 -32.57865088858664
rradius 142.59389428745308
rwrist -18.252053575620216
rhand -19.891023727204505 -29.962606170579
rfingers 7.125019999999968
rthumb 6.473022446316884 -59.805586437656096
lclavicle -5.583334334966402E-16 3.7691533373404467E-16
lhumerus -47.24183053103287 -6.089068245421104 79.57573318639693
lradius 61.91219669259221
lwrist 10.9900097201925
lhand -14.774951191343606 -19.463281383214017
lfingers 7.125019999999857
lthumb 11.30284764990749 10.35282128093403
rfemur -18.54698221991341 6.311468397187633 32.2889511955952
rtibia 45.69978033485816
rfoot -11.297438958833554 -8.574108562601888
rtoes 6.8955758434001195
lfemur -16.858953675394893 -0.1324449401351102 -20.100768383570713
ltibia 43.095844147436296
lfoot 2.8251540668320096 -9.499575954548035
ltoes 10.296196433499361
66
root 0 0 0 -1.367518826258294 -1.240052253189511 -3.9417148434497298
lowerback 20.362646515545123 2.7892405833969764 -0.37752835263103046
upperback 2.3304864263567766 3.7505608417946776 -0.21512221530559628
thorax -8.871826987769309 1.8207832330687537 -0.6517371832564479
lowerneck -7.917488120780737 -5.984082779515894 -1.1436646005817657
upperneck 0.67699269600549 -8.578284850882124 5.296281611659902
head 1.8934734840461145 -3.940958315128734 1.2987366062281482
rclavicle 1.337608982461906E-15 -4.120070699804344E-16
rhumerus 31.70266192790872 -9.730659345462755 -33.69334619480712
rradius 139.9578394873816
rwrist -16.763953501821362
rhand -19.8259575106345 -29.670505147978226
rfingers 7.125019999999968
rthumb 6.534376929175888 -59.51480942192972
lclavicle -4.1679168576790477E-16 1.3711563696478242E-16
lhumerus -47.1966774401172 -6.118877969641545 79.62960272594852
lradius 61.90785560009739
lwrist 10.992827656458328
lhand -14.768718537693772 -19.449015142114984
lfingers 7.125019999999857
lthumb 11.307407452890075 10.367651783992203
rfemur -21.16083076242013 5.354034398485934 31.587099360361492
rtibia 50.67612614967642
rfoot -9.592909314335795 -7.999969889198727
rtoes 8.01063194484517
lfemur -14.89498434958844 -0.16736735822955273 -20.08745133288002
ltibia 44.94745827799367
lfoot 3.950695782056002 -10.689750373830151
ltoes 8.353305382825575
